ply
format ascii 1.0
comment Generated by PyMesh
element vertex 175
property double x
property double y
property double z
element face 300
property list uchar int vertex_indices
end_header
-0.174543 0.0261574 0.0051229
-0.129029 0.00114125 0.0422937
-0.296522 0.0522957 0.00540862
-0.300564 -0.00690055 0.00553185
-0.314464 -0.00557647 -0.00129227
-0.301877 0.030349 0.00058541
-0.342828 0.0908971 0.000543743
0.2156 -0.0698193 0.0117705
0.293012 -0.0328942 0.0231046
0.217931 0.0198302 0.00851824
0.0575798 0.0198525 -0.0333821
0.095924 -0.0444092 -0.0469992
0.163743 -0.110837 -0.00158846
0.282179 -0.0350641 -0.0271582
0.0614801 -0.0357665 0.0467475
0.0790391 -0.0686046 0.235387
0.0678952 -0.0759138 0.162256
-0.147602 -0.0741805 0.00672378
-0.223811 -0.0585169 -0.0230404
-0.204904 -0.033383 0.041941
-0.0261945 -0.0506704 0.0390809
0.168639 -0.0574693 -0.0433857
0.0687823 -0.0642737 -0.24592
-0.00452692 -0.0623119 -0.336642
-0.0105015 -0.0619661 -0.253842
0.016594 -0.0717154 -0.0573513
0.139625 -0.0745204 0.0291982
0.0662471 -0.0663038 -0.20981
-0.329879 -0.00199363 0.0231151
-0.212385 -0.0468786 -0.0284875
0.000868933 -0.0708111 -0.0260979
0.0580665 -0.0086977 -0.0424647
-0.0979896 0.0201459 0.0326569
-0.240629 0.0126465 0.0360451
-0.221227 0.0153967 -0.0254816
0.119626 -0.0755885 -0.017314
0.294119 -0.0547265 -0.0186579
0.298425 -0.0341744 0.0217127
0.177632 -0.0287728 0.0401235
0.0278472 -0.0452773 0.0410428
0.0343163 -0.0581789 0.0378683
0.222745 -0.0615144 0.0211675
-0.127304 -0.012084 0.0451694
0.0491941 -0.0677957 0.0389895
0.161018 -0.0766714 0.0131558
0.0525211 -0.0694956 -0.031478
-0.236506 -0.0577505 -0.0165722
-0.237153 0.00497765 0.0405752
-0.104199 -0.064045 0.021946
-0.281219 0.0184648 -0.0374113
-0.27703 0.0160101 -0.037313
-0.23975 0.0186335 -0.00304063
-0.27308 0.016762 0.0503938
-0.295942 0.0166493 0.073749
-0.279959 0.0170704 0.0305081
-0.347196 0.0194773 0.00259828
0.0150229 -0.0651889 0.337587
-0.00831144 -0.0586763 0.15232
-0.0384398 -0.0491417 0.0547816
0.0793191 -0.0567209 0.0535944
0.125685 -0.0748785 0.104341
0.079841 -0.0647727 0.217474
0.0536431 -0.062785 0.128936
0.130746 -0.0901621 0.0848722
0.11815 -0.0686675 0.127417
0.077673 -0.0675598 0.210358
0.00574666 -0.0630283 0.149801
0.0357299 -0.0691554 0.043309
0.109742 -0.0920867 -0.00920872
0.0427484 -0.0978442 0.195752
-0.143217 0.0264936 0.00981049
-0.00874594 0.0413683 0.018702
0.173982 0.00962456 -0.0320402
-0.0322036 -0.0164925 -0.0406972
-0.110535 -0.0433296 -0.0456447
-0.279636 0.00350197 -0.0211764
-0.0512091 0.00934376 -0.0352042
0.0323191 0.031907 -0.030733
-0.0939713 0.0317751 -0.00309391
-0.0423006 0.0163552 0.0300216
0.0593312 -0.00388014 0.0382585
0.218509 0.0100365 0.0288078
0.191382 0.0325565 -0.0239282
0.0807665 0.0366544 0.0242151
-0.120019 -0.062367 0.0294896
-0.0778799 -0.0286054 0.0436517
0.0169659 -0.0594282 0.0693614
-0.0190816 -0.0619639 0.187346
-0.00689118 -0.0582994 0.0874842
-0.0430893 -0.0729301 -0.00641219
0.122619 -0.0686278 0.0579048
0.0700359 -0.05471 -0.0566448
-0.0247173 0.0129628 -0.0344181
0.0652489 0.0081352 0.0346128
0.201372 0.00295027 0.0314751
0.263905 -0.00335994 0.0196861
0.239561 -0.0225473 -0.0353402
0.158899 0.0424097 -0.0151775
0.230405 -0.0176115 0.0340672
0.172451 0.02027 0.0266161
-0.0194353 0.00887672 0.0305994
-0.079774 -0.0181727 0.0413907
-0.030713 -0.0388487 0.0418826
0.207176 -0.0442512 0.0382912
0.104924 -0.013454 0.0447946
-0.177126 0.0295763 -0.00588282
0.0155181 -3.22062e-05 0.0403504
-0.0371735 -0.00469457 0.0380311
-0.217755 0.000794521 0.0401338
-0.341475 0.038169 0.00457541
-0.318146 0.07181 -0.000599779
-0.156737 0.0219496 0.0188142
0.0437976 -0.0642426 -0.277428
0.185711 -0.0405389 -0.0402626
0.266875 -0.0618804 -0.0176131
0.030493 -0.0736366 -0.0193737
-0.0771552 -0.0644153 -0.0796291
-0.0122063 -0.0667504 -0.233196
0.0405397 -0.0569327 -0.0979794
0.0639858 -0.0763681 0.000974467
0.130139 -0.0889811 -0.101441
0.0839472 -0.0767465 -0.217527
0.0404799 -0.0647023 -0.32123
0.0649177 -0.0635673 -0.219758
0.0367042 -0.0618982 -0.0485046
-0.00889342 -0.0711158 -0.157185
0.273948 -0.0614446 0.0225714
0.227182 -0.0641756 0.0240816
0.0785674 -0.065597 0.0455415
-0.013863 -0.0672215 0.274546
0.0256031 -0.0708166 0.236846
0.14367 -0.0678959 0.0422525
0.112893 -0.0626809 0.0798431
0.00805573 -0.0686494 0.066494
0.028804 -0.0614405 0.082836
0.0199488 -0.0700972 0.305672
0.025045 -0.0632135 0.32768
0.0452551 -0.0618826 0.244809
0.074431 -0.0592267 0.129575
0.00522592 -0.0650665 0.234153
-0.0209139 -0.0762315 0.0137349
0.149564 -0.0741192 0.0333747
0.0568546 -0.0634261 -0.0613799
0.115971 -0.0695781 -0.15709
0.128372 -0.0828688 -0.0946052
0.0809033 -0.0734399 -0.0651227
-0.00415794 -0.060435 -0.189018
-0.104378 -0.0257487 0.0437699
-0.223127 0.00992881 0.0282963
-0.127916 0.0279042 0.0189202
0.0403882 0.037477 0.019293
0.196169 -0.00302421 0.0367178
0.0830523 -0.029605 0.043719
0.000770249 -0.0013939 0.0368533
-0.306779 0.00297848 -0.0172459
-0.157067 -0.0316491 -0.0401465
-0.013452 -0.06049 -0.038486
-0.00362642 -0.0669235 0.0346296
-0.0751715 -0.0460514 0.0448083
-0.28798 -0.00734865 0.0292781
-0.248144 -0.0583014 -0.00392343
0.323952 -0.0408847 0.0115989
0.250919 -0.0539688 0.0282666
0.163956 -0.0335869 0.0434322
0.0662997 -0.00704816 0.0428294
0.217324 0.0251703 0.0164817
0.30276 -0.0171989 -0.00956294
0.248956 -0.0174307 0.0310122
-0.0871125 -0.0470993 0.040112
0.0661404 -0.0222452 0.0465418
0.0187568 0.00356463 0.0409232
-0.230987 0.00496318 0.0256477
-0.316089 -0.0183687 0.0177146
-0.230469 -0.04641 0.0324806
-0.200612 -0.0157063 0.0473978
3 0 1 6
3 0 5 6
3 1 2 6
3 1 0 6
3 2 3 6
3 2 1 6
3 3 4 6
3 3 2 6
3 4 5 6
3 4 3 6
3 5 0 6
3 5 4 6
3 7 8 13
3 7 12 13
3 8 9 13
3 8 7 13
3 9 10 13
3 9 8 13
3 10 11 13
3 10 9 13
3 11 12 13
3 11 10 13
3 12 7 13
3 12 11 13
3 14 15 20
3 14 19 20
3 15 16 20
3 15 14 20
3 16 17 20
3 16 15 20
3 17 18 20
3 17 16 20
3 18 19 20
3 18 17 20
3 19 14 20
3 19 18 20
3 21 22 27
3 21 26 27
3 22 23 27
3 22 21 27
3 23 24 27
3 23 22 27
3 24 25 27
3 24 23 27
3 25 26 27
3 25 24 27
3 26 21 27
3 26 25 27
3 28 29 34
3 28 33 34
3 29 30 34
3 29 28 34
3 30 31 34
3 30 29 34
3 31 32 34
3 31 30 34
3 32 33 34
3 32 31 34
3 33 28 34
3 33 32 34
3 35 36 41
3 35 40 41
3 36 37 41
3 36 35 41
3 37 38 41
3 37 36 41
3 38 39 41
3 38 37 41
3 39 40 41
3 39 38 41
3 40 35 41
3 40 39 41
3 42 43 48
3 42 47 48
3 43 44 48
3 43 42 48
3 44 45 48
3 44 43 48
3 45 46 48
3 45 44 48
3 46 47 48
3 46 45 48
3 47 42 48
3 47 46 48
3 49 50 55
3 49 54 55
3 50 51 55
3 50 49 55
3 51 52 55
3 51 50 55
3 52 53 55
3 52 51 55
3 53 54 55
3 53 52 55
3 54 49 55
3 54 53 55
3 56 57 62
3 56 61 62
3 57 58 62
3 57 56 62
3 58 59 62
3 58 57 62
3 59 60 62
3 59 58 62
3 60 61 62
3 60 59 62
3 61 56 62
3 61 60 62
3 63 64 69
3 63 68 69
3 64 65 69
3 64 63 69
3 65 66 69
3 65 64 69
3 66 67 69
3 66 65 69
3 67 68 69
3 67 66 69
3 68 63 69
3 68 67 69
3 70 71 76
3 70 75 76
3 71 72 76
3 71 70 76
3 72 73 76
3 72 71 76
3 73 74 76
3 73 72 76
3 74 75 76
3 74 73 76
3 75 70 76
3 75 74 76
3 77 78 83
3 77 82 83
3 78 79 83
3 78 77 83
3 79 80 83
3 79 78 83
3 80 81 83
3 80 79 83
3 81 82 83
3 81 80 83
3 82 77 83
3 82 81 83
3 84 85 90
3 84 89 90
3 85 86 90
3 85 84 90
3 86 87 90
3 86 85 90
3 87 88 90
3 87 86 90
3 88 89 90
3 88 87 90
3 89 84 90
3 89 88 90
3 91 92 97
3 91 96 97
3 92 93 97
3 92 91 97
3 93 94 97
3 93 92 97
3 94 95 97
3 94 93 97
3 95 96 97
3 95 94 97
3 96 91 97
3 96 95 97
3 98 99 104
3 98 103 104
3 99 100 104
3 99 98 104
3 100 101 104
3 100 99 104
3 101 102 104
3 101 100 104
3 102 103 104
3 102 101 104
3 103 98 104
3 103 102 104
3 105 106 111
3 105 110 111
3 106 107 111
3 106 105 111
3 107 108 111
3 107 106 111
3 108 109 111
3 108 107 111
3 109 110 111
3 109 108 111
3 110 105 111
3 110 109 111
3 112 113 118
3 112 117 118
3 113 114 118
3 113 112 118
3 114 115 118
3 114 113 118
3 115 116 118
3 115 114 118
3 116 117 118
3 116 115 118
3 117 112 118
3 117 116 118
3 119 120 125
3 119 124 125
3 120 121 125
3 120 119 125
3 121 122 125
3 121 120 125
3 122 123 125
3 122 121 125
3 123 124 125
3 123 122 125
3 124 119 125
3 124 123 125
3 126 127 132
3 126 131 132
3 127 128 132
3 127 126 132
3 128 129 132
3 128 127 132
3 129 130 132
3 129 128 132
3 130 131 132
3 130 129 132
3 131 126 132
3 131 130 132
3 133 134 139
3 133 138 139
3 134 135 139
3 134 133 139
3 135 136 139
3 135 134 139
3 136 137 139
3 136 135 139
3 137 138 139
3 137 136 139
3 138 133 139
3 138 137 139
3 140 141 146
3 140 145 146
3 141 142 146
3 141 140 146
3 142 143 146
3 142 141 146
3 143 144 146
3 143 142 146
3 144 145 146
3 144 143 146
3 145 140 146
3 145 144 146
3 147 148 153
3 147 152 153
3 148 149 153
3 148 147 153
3 149 150 153
3 149 148 153
3 150 151 153
3 150 149 153
3 151 152 153
3 151 150 153
3 152 147 153
3 152 151 153
3 154 155 160
3 154 159 160
3 155 156 160
3 155 154 160
3 156 157 160
3 156 155 160
3 157 158 160
3 157 156 160
3 158 159 160
3 158 157 160
3 159 154 160
3 159 158 160
3 161 162 167
3 161 166 167
3 162 163 167
3 162 161 167
3 163 164 167
3 163 162 167
3 164 165 167
3 164 163 167
3 165 166 167
3 165 164 167
3 166 161 167
3 166 165 167
3 168 169 174
3 168 173 174
3 169 170 174
3 169 168 174
3 170 171 174
3 170 169 174
3 171 172 174
3 171 170 174
3 172 173 174
3 172 171 174
3 173 168 174
3 173 172 174
